<?xml version="1.0" standalone="no"?>
<svg viewBox="0 0 200 200" xmlns="http://www.w3.org/2000/svg">
  <path fill="#8A3FFC" d="M21.4,-43.7C28.5,-33.1,35.4,-28.8,38.9,-22.5C42.4,-16.3,42.3,-8.2,43.2,0.5C44,9.1,45.7,18.3,46.4,31.6C47,44.9,46.6,62.4,38.7,64.3C30.8,66.2,15.4,52.5,2.2,48.7C-11,45,-22,51.1,-28.3,48.2C-34.5,45.4,-36.1,33.5,-47.1,24C-58.2,14.5,-78.8,7.2,-79.7,-0.5C-80.6,-8.2,-61.6,-16.4,-50.2,-25.3C-38.8,-34.2,-34.8,-43.8,-27.7,-54.4C-20.6,-64.9,-10.3,-76.5,-1.5,-73.8C7.2,-71.1,14.4,-54.2,21.4,-43.7Z" transform="translate(100 100)" />
</svg>
