<?xml version="1.0" standalone="no"?>
<svg viewBox="0 0 200 200" xmlns="http://www.w3.org/2000/svg">
  <path fill="#8A3FFC" d="M11.7,-32.9C14.9,-18.4,17.1,-14.7,18.9,-11.1C20.7,-7.4,22,-3.7,19.5,-1.5C17,0.8,10.5,1.6,12.7,12.2C15,22.8,25.9,43.3,25.2,47.4C24.5,51.5,12.3,39.2,6,28.9C-0.3,18.5,-0.6,10.1,-13.1,12.8C-25.6,15.5,-50.3,29.4,-62.6,29.1C-74.8,28.9,-74.6,14.4,-74.2,0.2C-73.9,-14,-73.4,-28.1,-62.6,-30.8C-51.7,-33.5,-30.5,-24.8,-18.4,-34.2C-6.2,-43.6,-3.1,-71.1,0.6,-72.1C4.2,-73.1,8.5,-47.5,11.7,-32.9Z" transform="translate(100 100)" />
</svg>
