<?xml version="1.0" standalone="no"?>
<svg viewBox="0 0 200 200" xmlns="http://www.w3.org/2000/svg">
  <path fill="#9EF0F0" d="M37.9,-65.9C47.3,-60.3,51.6,-46.3,55.4,-33.9C59.2,-21.6,62.4,-10.8,53.3,-5.3C44.1,0.2,22.7,0.5,15.4,6.7C8,12.9,14.7,25,14.5,36C14.3,47,7.2,56.9,-3.6,63C-14.3,69.2,-28.5,71.6,-36.9,65.4C-45.4,59.1,-47.9,44.1,-54.6,31.8C-61.2,19.4,-71.8,9.7,-69.7,1.2C-67.6,-7.3,-52.7,-14.6,-44.4,-24C-36.1,-33.5,-34.5,-45.1,-28.1,-52.4C-21.8,-59.8,-10.9,-62.8,1.7,-65.7C14.3,-68.7,28.6,-71.5,37.9,-65.9Z" transform="translate(100 100)" />
</svg>
