<?xml version="1.0" standalone="no"?>
<svg viewBox="0 0 200 200" xmlns="http://www.w3.org/2000/svg">
  <path fill="#FF0066" d="M39.2,-59.2C49.6,-61.9,55.9,-48.9,64.5,-36.5C73,-24,83.8,-12,79.5,-2.4C75.3,7.1,56.1,14.2,42.7,18.2C29.2,22.2,21.6,23.2,15.4,30.1C9.3,37.1,4.6,50,-3.2,55.5C-11,61,-21.9,59,-34.6,55.8C-47.3,52.6,-61.6,48.2,-58.6,38.7C-55.5,29.2,-35.1,14.6,-36.2,-0.6C-37.3,-15.9,-60,-31.8,-63.4,-41.9C-66.8,-52,-50.8,-56.2,-37,-51.4C-23.2,-46.7,-11.6,-33.1,1.4,-35.5C14.4,-37.9,28.8,-56.4,39.2,-59.2Z" transform="translate(100 100)" />
</svg>
